Coordinates
version=1
nRows=24
nColumns=38
inDegrees=no

Units are S.I. units (second, meters, Newtons, ...)
If the header above contains a line with 'inDegrees', this indicates whether rotational values are in degrees (yes) or radians (no).

endheader
time	pelvis_tilt	pelvis_list	pelvis_rotation	pelvis_tx	pelvis_ty	pelvis_tz	hip_flexion_r	hip_adduction_r	hip_rotation_r	knee_angle_r	ankle_angle_r	subtalar_angle_r	mtp_angle_r	hip_flexion_l	hip_adduction_l	hip_rotation_l	knee_angle_l	ankle_angle_l	subtalar_angle_l	mtp_angle_l	lumbar_extension	lumbar_bending	lumbar_rotation	arm_flex_r	arm_add_r	arm_rot_r	elbow_flex_r	pro_sup_r	wrist_flex_r	wrist_dev_r	arm_flex_l	arm_add_l	arm_rot_l	elbow_flex_l	pro_sup_l	wrist_flex_l	wrist_dev_l
15	1.58223	1.49062	0.273819	0.606681	-1.03628	0.9351	0.246996	-0.0391371	-0.140925	0.248365	-0.400887	0	0	-0.0735058	-0.0422387	0.0118042	0.134583	-0.184823	0	0	-0.216084	0.0846464	-0.0852988	0.197198	-0.509236	0.124655	1.92592	1.5708	0	0	0.276794	-0.862924	0.124619	0.972699	1.5708	0	0
15.01	1.62702	1.49288	0.225807	0.606261	-1.03726	0.935192	0.239729	-0.0404696	-0.136566	0.235768	-0.413808	0	0	-0.0753387	-0.0388937	0.00842439	0.143517	-0.181111	0	0	-0.219506	0.0814162	-0.082502	0.181541	-0.509343	0.118762	1.93852	1.5708	0	0	0.281207	-0.861996	0.129849	0.970496	1.5708	0	0
15.02	1.62715	1.49302	0.222575	0.606075	-1.03814	0.935094	0.239695	-0.0404844	-0.134193	0.231733	-0.420444	0	0	-0.0751828	-0.036468	0.0201711	0.132977	-0.187713	0	0	-0.218675	0.0791289	-0.0808835	0.166029	-0.509023	0.114154	1.95001	1.5708	0	0	0.282541	-0.861385	0.132225	0.968866	1.5708	0	0
15.03	1.63536	1.49187	0.210426	0.606277	-1.03862	0.935196	0.237383	-0.0380984	-0.134185	0.223878	-0.42641	0	0	-0.0765064	-0.0370968	0.021813	0.130517	-0.190571	0	0	-0.217837	0.0775389	-0.0788938	0.150752	-0.507774	0.110671	1.96007	1.5708	0	0	0.282217	-0.861387	0.133292	0.967312	1.5708	0	0
15.04	1.64319	1.49099	0.201106	0.605914	-1.03943	0.935219	0.237578	-0.0372415	-0.134197	0.223151	-0.432712	0	0	-0.074798	-0.0326324	0.0249727	0.15963	-0.0941298	0	0	-0.217605	0.0771247	-0.0775219	0.133987	-0.507491	0.105106	1.97233	1.5708	0	0	0.286065	-0.859741	0.13821	0.964591	1.5708	0	0
15.05	1.71166	1.49206	0.131281	0.605573	-1.04017	0.935681	0.231513	-0.0376205	-0.134822	0.220762	-0.43682	0	0	-0.085189	-0.0357214	0.0305693	0.121673	-0.200829	0	0	-0.223243	0.0756187	-0.0783352	0.121056	-0.506217	0.103411	1.98382	1.5708	0	0	0.286678	-0.859594	0.138722	0.963395	1.5708	0	0
15.06	1.71365	1.49319	0.12813	0.605238	-1.04072	0.935757	0.232356	-0.0393155	-0.134834	0.222051	-0.436446	0	0	-0.0899747	-0.0326203	0.0399476	0.114029	-0.190594	0	0	-0.221844	0.073251	-0.0820283	0.109707	-0.504549	0.105235	1.99238	1.5708	0	0	0.281974	-0.85958	0.135116	0.96184	1.5708	0	0
15.07	1.73267	1.49473	0.108692	0.605001	-1.04123	0.936059	0.230874	-0.0409826	-0.135161	0.221171	-0.438951	0	0	-0.107804	-0.0294686	0.0646144	0.073763	-0.208578	0	0	-0.222058	0.0704139	-0.086967	0.0997139	-0.502453	0.107678	1.99973	1.5708	0	0	0.276977	-0.860225	0.130743	0.960562	1.5708	0	0
15.08	1.78647	1.49252	0.0532291	0.604776	-1.04138	0.935984	0.226238	-0.0380731	-0.135208	0.219476	-0.440523	0	0	-0.0907452	-0.0358886	0.0180864	0.132547	-0.18574	0	0	-0.223998	0.0719432	-0.090799	0.0914214	-0.502186	0.111606	2.008	1.5708	0	0	0.268199	-0.860843	0.1224	0.962048	1.5708	0	0
15.09	1.79277	1.4937	0.0463737	0.604556	-1.04164	0.935846	0.22592	-0.039612	-0.133952	0.218726	-0.440904	0	0	-0.0939685	-0.0345991	0.0217375	0.123008	-0.192546	0	0	-0.226504	0.0719026	-0.0940417	0.0800899	-0.503973	0.114814	2.02345	1.5708	0	0	0.260813	-0.860844	0.113979	0.964185	1.5708	0	0
15.1	1.78126	1.49404	0.0574372	0.604284	-1.04199	0.935809	0.228013	-0.0404935	-0.133335	0.220569	-0.441085	0	0	-0.092963	-0.0320725	0.0373595	0.116797	-0.194523	0	0	-0.219919	0.068458	-0.104049	0.0739961	-0.500938	0.124022	2.02263	1.5708	0	0	0.247124	-0.862523	0.102531	0.96393	1.5708	0	0
15.11	1.81858	1.49521	0.019158	0.603972	-1.04198	0.935955	0.22686	-0.0419017	-0.132107	0.224676	-0.441126	0	0	-0.0984708	-0.031993	0.0254324	0.120016	-0.191307	0	0	-0.220508	0.0663521	-0.109488	0.0648327	-0.500843	0.129251	2.02981	1.5708	0	0	0.238268	-0.863238	0.0949427	0.964115	1.5708	0	0
15.12	1.81714	1.49467	0.018722	0.603781	-1.0422	0.936058	0.22612	-0.041453	-0.132395	0.220727	-0.443426	0	0	-0.0996825	-0.0321059	0.0265012	0.117488	-0.191671	0	0	-0.218781	0.0661594	-0.113643	0.0553585	-0.500358	0.133128	2.03689	1.5708	0	0	0.229739	-0.862878	0.087218	0.963769	1.5708	0	0
15.13	1.83584	1.49475	-0.00177224	0.603598	-1.04231	0.936126	0.2257	-0.0416126	-0.131225	0.221897	-0.443635	0	0	-0.101641	-0.0315747	0.0256039	0.117369	-0.191579	0	0	-0.218035	0.0651208	-0.116202	0.0445889	-0.500106	0.134807	2.04399	1.5708	0	0	0.226354	-0.862805	0.0863248	0.961522	1.5708	0	0
15.14	1.78225	1.49432	0.0493324	0.60335	-1.04222	0.935939	0.231862	-0.0414583	-0.129569	0.224971	-0.445267	0	0	-0.0973877	-0.0312205	0.0251502	0.118355	-0.191189	0	0	-0.211561	0.0673593	-0.126685	0.0428215	-0.500568	0.150485	2.04858	1.5708	0	0	0.278527	-0.844284	0.0923991	0.929191	1.52683	0	0
15.15	1.87137	1.49577	-0.041873	0.60335	-1.04242	0.936254	0.230015	-0.0440136	-0.134435	0.23655	-0.439446	0	0	-0.103244	-0.02806	0.0197042	0.123976	-0.194637	0	0	-0.21783	0.0622714	-0.129438	0.0332493	-0.500829	0.152561	2.05577	1.5708	0	0	0.197369	-0.863739	0.0557976	0.967338	1.5708	0	0
15.16	1.87178	1.49475	-0.045012	0.603382	-1.04248	0.936085	0.232999	-0.0429781	-0.134078	0.241739	-0.438847	0	0	-0.106159	-0.0301866	0.0234435	0.116761	-0.191161	0	0	-0.215542	0.0621611	-0.132618	0.0248711	-0.501827	0.157168	2.062	1.5708	0	0	0.190117	-0.863763	0.0502302	0.966764	1.5708	0	0
15.17	1.89374	1.49485	-0.0694612	0.603353	-1.04251	0.936099	0.232896	-0.0429438	-0.131638	0.24408	-0.438358	0	0	-0.108172	-0.0296971	0.0223121	0.117219	-0.192076	0	0	-0.214735	0.0606012	-0.135947	0.0165417	-0.502356	0.160867	2.06748	1.5708	0	0	0.18464	-0.864176	0.0469697	0.965297	1.5708	0	0
15.18	1.92562	1.496	-0.103192	0.603186	-1.04245	0.936213	0.231255	-0.0441327	-0.127429	0.24533	-0.437827	0	0	-0.109506	-0.0263876	0.019001	0.122433	-0.195156	0	0	-0.214187	0.0578336	-0.139517	0.00786086	-0.502566	0.16379	2.07238	1.5708	0	0	0.180709	-0.865296	0.047015	0.963274	1.5708	0	0
15.19	1.86007	1.49543	-0.0402816	0.603063	-1.0422	0.935833	0.238009	-0.0428246	-0.123296	0.2477	-0.438503	0	0	-0.102317	-0.0278788	0.0157043	0.125373	-0.195394	0	0	-0.205431	0.0601557	-0.149037	0.00768804	-0.503793	0.177782	2.07398	1.5708	0	0	0.235676	-0.848722	0.0761579	0.93852	1.31587	0	0
15.2	1.91679	1.49706	-0.0989366	0.603254	-1.04224	0.936024	0.238129	-0.0453474	-0.125582	0.257402	-0.430943	0	0	-0.108823	-0.0246019	0.0193436	0.123619	-0.192706	0	0	-0.193402	0.0522183	-0.191257	0.0531429	-0.502533	0.242189	2.03729	1.5708	0	0	0.0875074	-0.870108	-0.0437807	0.969038	1.5708	0	0
15.21	0.838414	1.49516	0.957806	0.599991	-1.0454	0.929546	0.369993	-0.11017	-0.317197	0.362405	-0.431557	0	0	-0.0263841	0.0223704	0.0387873	0.135006	-0.18345	0	0	-0.134906	0.0278741	-0.140431	-0.0260532	-0.517256	0.173931	2.09428	1.5708	0	0	0.143626	-0.845671	0.00760624	0.963111	1.5708	0	0
15.22	1.98701	1.49418	-0.173553	0.603443	-1.04214	0.936313	0.233001	-0.0418912	-0.123678	0.256293	-0.439905	0	0	-0.118167	-0.0278928	0.0226869	0.114602	-0.18837	0	0	-0.217922	0.0542751	-0.149573	-0.0305678	-0.505635	0.17241	2.10381	1.5708	0	0	0.156708	-0.864346	0.0197931	0.967264	1.5708	0	0
15.23	2.01241	1.49341	-0.20083	0.603396	-1.04201	0.936586	0.234177	-0.0417587	-0.126316	0.264991	-0.433105	0	0	-0.115179	-0.0263648	0.0149009	0.130031	-0.190126	0	0	-0.219589	0.0537773	-0.151914	-0.0401237	-0.506526	0.174049	2.11082	1.5708	0	0	0.153449	-0.863707	0.0167581	0.965961	1.5708	0	0
